<?xml version="1.0"?>
<svg width="1080" height="1080" xmlns="http://www.w3.org/2000/svg" xmlns:svg="http://www.w3.org/2000/svg" version="1.1" xml:space="preserve">
 <desc>Created with Fabric.js 5.2.4</desc>

 <g class="layer">
  <title>Layer 1</title>
  <g id="f1a6e985-3e0a-4065-bde2-22ae9ed21961" transform="matrix(1 0 0 1 540 540)"/>
  <g id="513755bb-cb97-4ee7-87de-c7a8b2e76b90" transform="matrix(2.07, 0, 0, 2.07, 539.93, 539.91)">
   <path d="m435.2,273.07l-31.77,0l-40.63,-24.38c-1.34,-0.8 -2.85,-1.22 -4.4,-1.22l-52.23,0c0.67,-2.75 1.03,-5.61 1.03,-8.53c0,-3.37 -0.52,-6.64 -1.41,-9.79l37.22,-7.45c2.22,-0.43 4.17,-1.75 5.43,-3.63l32.17,-48.26l39.2,-7.84c2.22,-0.44 4.17,-1.75 5.43,-3.63l17.06,-25.6c2.62,-3.93 1.56,-9.23 -2.36,-11.84c-3.94,-2.62 -9.23,-1.55 -11.84,2.37l-15.11,22.66l-39.19,7.84c-2.22,0.44 -4.18,1.75 -5.43,3.63l-32.18,48.27l-39.18,7.83c-2.14,-2.39 -4.56,-4.58 -7.24,-6.55c15.47,-8.64 25.96,-25.16 25.96,-44.1l0,-18.49c0,-2 -0.14,-3.96 -0.37,-5.89c0.1,-0.44 0.32,-0.82 0.35,-1.28c0.04,-0.52 4.28,-51.85 34.16,-51.85c45.89,0 50.99,-73.16 51.18,-76.26c0.29,-4.71 -3.28,-8.76 -7.98,-9.06c-4.69,-0.32 -8.76,3.28 -9.05,7.99c-0.04,0.6 -4.59,60.26 -34.15,60.26c-27.62,0 -40.45,23.87 -46.34,43.26c-3.96,-4.6 -8.71,-8.52 -14.08,-11.46c5.67,-6 9.2,-13.93 9.18,-22.56c0.16,-1.77 1.19,-17.59 -7.88,-27.43c-4.45,-4.85 -10.57,-7.41 -17.68,-7.41c-4.72,0 -8.53,3.82 -8.53,8.53c0,4.71 3.81,8.54 8.53,8.54c2.99,0 4.3,1 5.11,1.87c3.42,3.7 3.64,11.92 3.42,15.19c0,9.41 -7.65,17.07 -17.06,17.07l-17.07,0c-9.41,0 -17.07,-7.66 -17.1,-17.78c-0.25,-3.08 0.25,-11 3.44,-14.46c0.81,-0.88 2.12,-1.89 5.13,-1.89c4.71,0 8.53,-3.83 8.53,-8.54c0,-4.71 -3.82,-8.53 -8.53,-8.53c-7.11,0 -13.23,2.56 -17.69,7.41c-9.07,9.84 -8.03,25.66 -7.91,26.72c0,9 3.56,17.13 9.26,23.24c-5.38,2.94 -10.15,6.87 -14.13,11.49c-5.89,-19.39 -18.71,-43.26 -46.33,-43.26c-29.46,0 -34.11,-59.68 -34.15,-60.27c-0.3,-4.71 -4.46,-8.31 -9.06,-7.98c-4.7,0.3 -8.27,4.35 -7.98,9.05c0.19,3.11 5.29,76.26 51.19,76.26c29.74,0 34.11,51.34 34.15,51.86c0.04,0.45 0.25,0.84 0.35,1.27c-0.23,1.94 -0.37,3.89 -0.37,5.9l0,18.48c0,18.95 10.5,35.47 25.97,44.1c-2.68,1.97 -5.11,4.17 -7.25,6.56l-39.18,-7.84l-32.17,-48.26c-1.26,-1.88 -3.21,-3.19 -5.43,-3.63l-39.2,-7.84l-15.11,-22.67c-2.61,-3.91 -7.91,-4.99 -11.83,-2.36c-3.93,2.61 -4.99,7.91 -2.37,11.84l17.07,25.6c1.25,1.87 3.21,3.19 5.43,3.62l39.19,7.84l32.18,48.27c1.25,1.88 3.21,3.19 5.43,3.63l37.22,7.45c-0.9,3.15 -1.42,6.41 -1.42,9.78c0,2.92 0.36,5.78 1.03,8.54l-52.23,0c-1.55,0 -3.06,0.42 -4.39,1.22l-40.64,24.38l-31.77,0c-4.72,0 -8.53,3.82 -8.53,8.53c0,4.71 3.81,8.53 8.53,8.53l34.13,0c1.56,0 3.07,-0.41 4.4,-1.22l40.63,-24.38l57.37,0c0.55,0 1.02,-0.21 1.53,-0.3c4.24,4.77 9.62,8.79 15.83,11.75c-5.43,6.04 -8.82,13.94 -8.82,22.69l0,3.26l-80.62,40.3c-2.36,1.19 -4.03,3.38 -4.54,5.96l-25.1,125.47l-23.77,23.78c-3.34,3.33 -3.34,8.73 0,12.06c1.66,1.67 3.85,2.5 6.03,2.5c2.18,0 4.37,-0.83 6.03,-2.5l25.6,-25.6c1.2,-1.19 2,-2.7 2.33,-4.36l24.79,-123.9l69.25,-34.63l0,3.26c0,8.49 3.23,16.17 8.38,22.15c-24.91,10.19 -42.51,34.66 -42.51,63.18l0,34.14c0,37.64 30.62,68.26 68.26,68.26c37.64,0 68.27,-30.62 68.27,-68.26l0,-34.14c0,-28.52 -17.6,-52.99 -42.51,-63.18c5.15,-5.98 8.38,-13.66 8.38,-22.15l0,-3.26l69.25,34.63l24.78,123.9c0.34,1.66 1.14,3.17 2.33,4.36l25.6,25.6c1.67,1.67 3.85,2.5 6.04,2.5c2.18,0 4.37,-0.83 6.03,-2.5c3.34,-3.33 3.34,-8.73 0,-12.06l-23.77,-23.78l-25.1,-125.46c-0.51,-2.59 -2.19,-4.78 -4.55,-5.97l-80.61,-40.3l0,-3.26c0,-8.75 -3.4,-16.65 -8.83,-22.69c6.22,-2.96 11.59,-6.98 15.83,-11.75c0.52,0.09 0.98,0.31 1.53,0.31l57.37,0l40.64,24.38c1.33,0.8 2.84,1.22 4.39,1.22l34.13,0c4.72,0 8.54,-3.83 8.54,-8.54c0,-4.71 -3.82,-8.53 -8.54,-8.53z" fill="rgb(0,255,0)" fill-rule="nonzero" id="svg_3" stroke="rgb(0,0,0)" stroke-dashoffset="0" stroke-miterlimit="4" stroke-width="0" transform=" translate(-256, -256)"/>
  </g>
  <g id="svg_4" transform="matrix(1.9 0 0 1.9 540 874.87)">
   <g id="svg_5">
    <g id="svg_6" transform="matrix(1 0 0 1 -0.36 -63.65)">
     <path d="m103.1,47.4c-13.3,8 -25,15.1 -26,15.7l-1.9,1.1l26.4,15.8l26.4,15.9l26.4,-15.8c22.8,-13.6 26.3,-15.9 25.6,-16.4c-3.7,-2.5 -51.6,-30.8 -52.1,-30.8c-0.4,0 -11.5,6.6 -24.8,14.5z" fill="#000000" fill-rule="nonzero" id="svg_7" stroke-dashoffset="0" stroke-miterlimit="4" transform=" translate(-127.64, -64.4)"/>
    </g>
    <g id="svg_8" transform="matrix(1 0 0 1 -30.6 -11.35)">
     <path d="m71,99.1l0,27.7l26.4,17.6l26.4,17.6l0,-29.4l0,-29.4l-25.1,-15.2c-13.9,-8.3 -25.8,-15.5 -26.4,-15.9l-1.3,-0.7l0,27.7l0,0z" fill="#000000" fill-rule="nonzero" id="svg_9" stroke-dashoffset="0" stroke-miterlimit="4" transform=" translate(-97.4, -116.7)"/>
    </g>
    <g id="svg_10" transform="matrix(1 0 0 1 30.5 -10.95)">
     <path d="m158.4,87.4l-26.3,15.8l0,29.7l0,29.7l26.4,-15.9l26.4,-15.9l0,-29.6c0,-16.3 -0.1,-29.7 -0.1,-29.6c0,0 -11.9,7.1 -26.4,15.8z" fill="#000000" fill-rule="nonzero" id="svg_11" stroke-dashoffset="0" stroke-miterlimit="4" transform=" translate(-158.5, -117.1)"/>
    </g>
    <g id="svg_12" transform="matrix(1 0 0 1 -77.75 -1.6)">
     <path d="m38.3,110.6c-13.3,8 -24.2,14.6 -24.2,14.6c0.1,0.1 12.1,7.3 26.5,15.9l26.4,15.8l9.7,-4.8l9.7,-4.8l-10.8,-7.3c-6,-4 -11.3,-7.7 -11.7,-8.3c-0.8,-0.9 -0.9,-2.7 -1,-18.4l-0.3,-17.3l-24.3,14.6z" fill="#000000" fill-rule="nonzero" id="svg_13" stroke-dashoffset="0" stroke-miterlimit="4" transform=" translate(-50.25, -126.45)"/>
    </g>
    <g id="svg_14" transform="matrix(1 0 0 1 79.95 -1.95)">
     <path d="m193.1,115.1c0,16.4 -0.1,19.4 -0.8,20.3c-0.5,0.6 -4.5,3.4 -9.1,6.1c-4.5,2.7 -8.5,5.2 -8.9,5.5c-0.5,0.5 0.8,1.5 6.7,5c4,2.4 7.6,4.4 7.9,4.4c0.4,0 51.9,-30.5 52.8,-31.3c0.1,-0.1 -10.3,-6.4 -23.1,-14c-12.8,-7.7 -23.8,-14.2 -24.4,-14.6l-1.2,-0.7l0,19.3l0.1,0z" fill="#000000" fill-rule="nonzero" id="svg_15" stroke-dashoffset="0" stroke-miterlimit="4" transform=" translate(-207.95, -126.1)"/>
    </g>
    <g id="svg_16" transform="matrix(1 0 0 1 -91.63 49.5)">
     <path d="m10,160.2l0,27.7l26.1,17.4c14.3,9.5 26.2,17.3 26.4,17.3c0.2,0 0.3,-13.2 0.2,-29.3l-0.1,-29.3l-24.9,-15c-13.7,-8.2 -25.5,-15.3 -26.3,-15.7l-1.4,-0.8l0,27.7z" fill="#000000" fill-rule="nonzero" id="svg_17" stroke-dashoffset="0" stroke-miterlimit="4" transform=" translate(-36.37, -177.55)"/>
    </g>
    <g id="svg_18" transform="matrix(1 0 0 1 91.58 49.85)">
     <path d="m219.6,148.2l-26.2,15.8l-0.2,29.6c-0.1,16.3 0,29.6 0.2,29.6c0.2,0 12.1,-7 26.4,-15.6l26.2,-15.7l0,-29.6c0,-16.3 -0.1,-29.7 -0.1,-29.7c-0.1,0 -12,7 -26.3,15.6z" fill="#000000" fill-rule="nonzero" id="svg_19" stroke-dashoffset="0" stroke-miterlimit="4" transform=" translate(-219.58, -177.9)"/>
    </g>
    <g id="svg_20" transform="matrix(1 0 0 1 -30.6 59.75)">
     <path d="m82.6,158.5l-11.6,5.9l0,29.4c0,19.3 0.2,29.4 0.5,29.2c0.3,-0.1 12.2,-7.1 26.4,-15.7l25.9,-15.5l0,-9.9l0,-9.9l-14.6,-9.7c-8,-5.3 -14.8,-9.7 -14.9,-9.7c0,0 -5.3,2.6 -11.7,5.9z" fill="#000000" fill-rule="nonzero" id="svg_21" stroke-dashoffset="0" stroke-miterlimit="4" transform=" translate(-97.4, -187.8)"/>
    </g>
    <g id="svg_22" transform="matrix(1 0 0 1 30.5 59.85)">
     <path d="m148.5,162.4l-16.4,9.9l0,9.8l0,9.8l26.2,15.7c14.4,8.6 26.3,15.6 26.4,15.6c0.2,0 0.2,-13.3 0.2,-29.6l-0.2,-29.6l-9.7,-5.7c-5.3,-3.2 -9.8,-5.7 -9.9,-5.7c-0.1,-0.1 -7.6,4.3 -16.6,9.8z" fill="#000000" fill-rule="nonzero" id="svg_23" stroke-dashoffset="0" stroke-miterlimit="4" transform=" translate(-158.5, -187.9)"/>
    </g>
   </g>
  </g>
 </g>
</svg>