<?xml version="1.0" encoding="utf-8"?>
<!-- Svg Vector Icons : http://www.onlinewebfonts.com/icon -->
<!DOCTYPE svg PUBLIC "-//W3C//DTD SVG 1.1//EN" "http://www.w3.org/Graphics/SVG/1.1/DTD/svg11.dtd">
<svg version="1.1" xmlns="http://www.w3.org/2000/svg" xmlns:xlink="http://www.w3.org/1999/xlink" x="0px" y="0px" viewBox="0 0 256 256" enable-background="new 0 0 256 256" xml:space="preserve">
<metadata> Svg Vector Icons : http://www.onlinewebfonts.com/icon </metadata>
<g><g><g><path fill="#000000" d="M103.1,47.4c-13.3,8-25,15.1-26,15.7l-1.9,1.1L101.6,80L128,95.9l26.4-15.8c22.8-13.6,26.3-15.9,25.6-16.4c-3.7-2.5-51.6-30.8-52.1-30.8C127.5,32.9,116.4,39.5,103.1,47.4z"/><path fill="#000000" d="M71,99.1v27.7l26.4,17.6l26.4,17.6v-29.4v-29.4L98.7,88c-13.9-8.3-25.8-15.5-26.4-15.9L71,71.4L71,99.1L71,99.1z"/><path fill="#000000" d="M158.4,87.4l-26.3,15.8v29.7v29.7l26.4-15.9l26.4-15.9v-29.6c0-16.3-0.1-29.7-0.1-29.6C184.8,71.6,172.9,78.7,158.4,87.4z"/><path fill="#000000" d="M38.3,110.6c-13.3,8-24.2,14.6-24.2,14.6c0.1,0.1,12.1,7.3,26.5,15.9l26.4,15.8l9.7-4.8l9.7-4.8L75.6,140c-6-4-11.3-7.7-11.7-8.3c-0.8-0.9-0.9-2.7-1-18.4L62.6,96L38.3,110.6z"/><path fill="#000000" d="M193.1,115.1c0,16.4-0.1,19.4-0.8,20.3c-0.5,0.6-4.5,3.4-9.1,6.1c-4.5,2.7-8.5,5.2-8.9,5.5c-0.5,0.5,0.8,1.5,6.7,5c4,2.4,7.6,4.4,7.9,4.4c0.4,0,51.9-30.5,52.8-31.3c0.1-0.1-10.3-6.4-23.1-14c-12.8-7.7-23.8-14.2-24.4-14.6l-1.2-0.7V115.1z"/><path fill="#000000" d="M10,160.2v27.7l26.1,17.4c14.3,9.5,26.2,17.3,26.4,17.3c0.2,0,0.3-13.2,0.2-29.3L62.6,164l-24.9-15c-13.7-8.2-25.5-15.3-26.3-15.7l-1.4-0.8V160.2z"/><path fill="#000000" d="M219.6,148.2L193.4,164l-0.2,29.6c-0.1,16.3,0,29.6,0.2,29.6s12.1-7,26.4-15.6l26.2-15.7v-29.6c0-16.3-0.1-29.7-0.1-29.7C245.8,132.6,233.9,139.6,219.6,148.2z"/><path fill="#000000" d="M82.6,158.5L71,164.4v29.4c0,19.3,0.2,29.4,0.5,29.2c0.3-0.1,12.2-7.1,26.4-15.7l25.9-15.5l0-9.9V172l-14.6-9.7c-8-5.3-14.8-9.7-14.9-9.7C94.3,152.6,89,155.2,82.6,158.5z"/><path fill="#000000" d="M148.5,162.4l-16.4,9.9v9.8v9.8l26.2,15.7c14.4,8.6,26.3,15.6,26.4,15.6c0.2,0,0.2-13.3,0.2-29.6l-0.2-29.6l-9.7-5.7c-5.3-3.2-9.8-5.7-9.9-5.7C165,152.5,157.5,156.9,148.5,162.4z"/></g></g></g>
</svg>